<svg width="39" height="24" viewBox="0 0 39 24" fill="none" xmlns="http://www.w3.org/2000/svg">
<path d="M24.7736 21.4358H14.2252V2.5672H24.7736V21.4358Z" fill="#FF5F00"/>
<path d="M14.9009 12C14.9009 8.17242 16.7015 4.76292 19.5054 2.56571C17.4549 0.958991 14.8672 -1.0932e-07 12.0549 -1.0932e-07C5.39699 -1.0932e-07 0 5.3725 0 12C0 18.6275 5.39699 24 12.0549 24C14.8672 24 17.4549 23.041 19.5054 21.4343C16.7015 19.2371 14.9009 15.8276 14.9009 12Z" fill="#EB001B"/>
<path d="M39 12C39 18.6275 33.603 24 26.9451 24C24.1328 24 21.5451 23.041 19.4939 21.4343C22.2985 19.2371 24.0991 15.8276 24.0991 12C24.0991 8.17242 22.2985 4.76292 19.4939 2.56571C21.5451 0.958991 24.1328 -1.0932e-07 26.9451 -1.0932e-07C33.603 -1.0932e-07 39 5.3725 39 12Z" fill="#F79E1B"/>
</svg>
