<svg width="30" height="30" viewBox="0 0 30 30" fill="none" xmlns="http://www.w3.org/2000/svg">
<path d="M30 15.0001C30 6.72899 23.271 0 15.0001 0C11.1102 0 7.4227 1.48257 4.61684 4.17453C4.26259 4.51444 4.25097 5.07706 4.59077 5.43132C4.93057 5.78557 5.4933 5.79707 5.84756 5.45739C8.32084 3.08461 11.5713 1.77781 15.0001 1.77781C22.2908 1.77781 28.2223 7.70928 28.2223 15.0001C28.2223 18.3157 26.9886 21.4874 24.7484 23.9312C22.2485 26.6582 18.6954 28.2223 15.0001 28.2223C11.4548 28.2223 8.04019 26.7825 5.5611 24.2573C5.57579 24.1938 5.59215 24.131 5.60827 24.0681C5.62107 24.0179 5.63292 23.9674 5.64655 23.9177C5.66741 23.8418 5.69064 23.767 5.71351 23.6921C5.72714 23.6477 5.73947 23.6026 5.75369 23.5585C5.78142 23.4726 5.81165 23.388 5.84199 23.3034C5.85349 23.2714 5.8638 23.2388 5.87565 23.2069C5.96205 22.9743 6.05817 22.7469 6.1633 22.525C6.17906 22.4919 6.19625 22.4596 6.21237 22.4267C6.25005 22.3496 6.28774 22.2726 6.32769 22.197C6.34878 22.157 6.37142 22.118 6.39323 22.0785C6.43009 22.0113 6.46659 21.9438 6.50511 21.8778C6.52988 21.8352 6.55631 21.7938 6.58179 21.7517C6.61925 21.6899 6.65646 21.6281 6.69534 21.5674C6.72307 21.5243 6.75211 21.4823 6.78055 21.4397C6.81943 21.3817 6.85795 21.3234 6.89812 21.2662C6.92835 21.2232 6.95987 21.1814 6.99093 21.1389C7.03122 21.0839 7.07128 21.0288 7.11276 20.9749C7.14536 20.9325 7.17925 20.891 7.21268 20.8493C7.25451 20.797 7.29623 20.7445 7.33926 20.6933C7.37398 20.6518 7.40978 20.6114 7.44533 20.5706C7.48883 20.5207 7.53233 20.4708 7.57701 20.4219C7.61375 20.3816 7.65144 20.3424 7.68889 20.3028C7.73417 20.2551 7.77944 20.2075 7.82566 20.1609C7.8643 20.122 7.90365 20.0841 7.94288 20.0461C7.98982 20.0007 8.03687 19.9553 8.08487 19.911C8.12528 19.8736 8.16629 19.837 8.2073 19.8005C8.25578 19.7572 8.30461 19.7143 8.35403 19.6723C8.3961 19.6365 8.43877 19.6013 8.48168 19.5663C8.53181 19.5254 8.58218 19.4848 8.63314 19.4449C8.67688 19.4108 8.72109 19.3773 8.76541 19.344C8.81709 19.3053 8.869 19.267 8.9215 19.2296C8.9669 19.1971 9.01253 19.1652 9.05851 19.1337C9.11161 19.0973 9.16506 19.0615 9.21887 19.0263C9.26569 18.9957 9.31274 18.9656 9.36015 18.9359C9.41467 18.9018 9.46966 18.8683 9.52501 18.8354C9.57313 18.8068 9.62149 18.7784 9.6702 18.7508C9.72614 18.7189 9.78267 18.6879 9.83944 18.6574C9.88887 18.6307 9.93841 18.6043 9.98831 18.5785C10.0457 18.549 10.1036 18.5206 10.1617 18.4924C10.2123 18.4678 10.2629 18.4433 10.314 18.4197C10.3729 18.3926 10.4323 18.3665 10.4918 18.3407C10.5433 18.3183 10.5948 18.2959 10.6467 18.2745C10.7071 18.2498 10.7681 18.2262 10.8291 18.2028C10.8815 18.1827 10.9336 18.1624 10.9865 18.1433C11.0484 18.1209 11.1109 18.1001 11.1734 18.0791C11.2264 18.0613 11.2792 18.0432 11.3327 18.0264C11.3961 18.0064 11.4602 17.9881 11.5243 17.9697C11.5778 17.9543 11.6311 17.9383 11.685 17.924C11.7503 17.9065 11.8162 17.8909 11.8821 17.8749C11.9357 17.862 11.9892 17.8483 12.0431 17.8364C12.1104 17.8214 12.1786 17.8085 12.2465 17.7952C12.2998 17.7848 12.3529 17.7734 12.4066 17.764C12.4766 17.7516 12.5474 17.7414 12.6179 17.7308C12.6703 17.7228 12.7223 17.7139 12.775 17.7071C12.8493 17.6972 12.9244 17.6899 12.9993 17.6819C13.0489 17.6767 13.0982 17.6703 13.1479 17.6659C13.2311 17.6586 13.3152 17.6541 13.399 17.6491C13.441 17.6466 13.4829 17.6428 13.5251 17.6409C13.6514 17.6354 13.7784 17.6324 13.906 17.6324H16.0942C18.6626 17.6324 21.0734 18.7713 22.7085 20.7571C23.0205 21.136 23.5808 21.1903 23.9597 20.8782C24.3386 20.5661 24.3929 20.006 24.0809 19.627C22.6872 17.9345 20.8263 16.7525 18.7614 16.2032C19.9366 15.162 20.6792 13.6431 20.6792 11.9534C20.6792 8.82195 18.1316 6.27423 15.0001 6.27423C11.8685 6.27423 9.32092 8.82183 9.32092 11.9534C9.32092 13.6431 10.0636 15.1618 11.2386 16.203C11.2094 16.2109 11.18 16.2182 11.1509 16.2262C11.029 16.2597 10.9081 16.2956 10.7881 16.3335C10.7734 16.3382 10.7583 16.3422 10.7436 16.3468C10.609 16.3899 10.4758 16.4361 10.3434 16.4844C10.3021 16.4995 10.2616 16.5161 10.2206 16.5317C10.1299 16.5662 10.0394 16.6012 9.94991 16.6382C9.90024 16.6588 9.8513 16.6804 9.80199 16.7018C9.72199 16.7364 9.64211 16.7713 9.56317 16.8078C9.51162 16.8317 9.46065 16.8562 9.40957 16.8809C9.33348 16.9176 9.25798 16.9551 9.18284 16.9936C9.13211 17.0195 9.08151 17.0458 9.03125 17.0727C8.95599 17.1129 8.88144 17.1543 8.80725 17.1964C8.75937 17.2235 8.71137 17.2504 8.66396 17.2783C8.58597 17.3241 8.50905 17.3715 8.43225 17.4194C8.39041 17.4455 8.34822 17.4709 8.30674 17.4975C8.21145 17.5588 8.11746 17.6222 8.02431 17.6866C8.00297 17.7013 7.98116 17.7151 7.95995 17.7301C7.84617 17.8099 7.73417 17.8922 7.62371 17.9766C7.5917 18.001 7.56065 18.0267 7.52889 18.0515C7.45114 18.1124 7.37363 18.1737 7.29754 18.2367C7.25712 18.2703 7.21754 18.3049 7.17771 18.339C7.11158 18.3955 7.0458 18.4524 6.98121 18.5106C6.93949 18.5482 6.89848 18.5864 6.85735 18.6247C6.79596 18.6818 6.73504 18.7395 6.67495 18.7982C6.63418 18.838 6.59365 18.878 6.55347 18.9186C6.49409 18.9786 6.43566 19.0394 6.37782 19.1007C6.33954 19.1413 6.30126 19.1816 6.26368 19.2228C6.20383 19.2884 6.14528 19.3552 6.08709 19.4223C6.05378 19.4607 6.01989 19.4986 5.98706 19.5376C5.91843 19.6192 5.85147 19.7025 5.78534 19.7863C5.76495 19.8121 5.74374 19.8371 5.72359 19.8632C5.63813 19.9734 5.55493 20.0855 5.47386 20.1994C5.45229 20.2298 5.43191 20.2609 5.41069 20.2915C5.35191 20.376 5.29359 20.461 5.2373 20.5474C5.20885 20.5911 5.18159 20.6356 5.15374 20.6798C5.10645 20.7548 5.05952 20.8301 5.01412 20.9064C4.98509 20.9551 4.957 21.0044 4.92879 21.0537C4.88648 21.1276 4.84488 21.2019 4.80434 21.2769C4.77673 21.328 4.74959 21.3794 4.7228 21.431C4.68357 21.5066 4.64541 21.5829 4.60807 21.6596C4.58283 21.7113 4.5577 21.7628 4.53329 21.815C4.4956 21.8958 4.45945 21.9775 4.42377 22.0595C4.40244 22.1086 4.38051 22.1572 4.35977 22.2067C4.31983 22.3023 4.28214 22.3992 4.24493 22.4964C4.23082 22.5331 4.21577 22.5694 4.20214 22.6063C4.20013 22.6118 4.19787 22.617 4.19586 22.6225C2.62724 20.403 1.77781 17.751 1.77781 15.0001C1.77781 14.5091 1.37981 14.1112 0.888903 14.1112C0.397991 14.1112 0 14.5091 0 15.0001C0 18.7617 1.39973 22.3601 3.94116 25.1325C6.77688 28.2259 10.8078 30 14.9999 30C19.1924 30 23.2231 28.2259 26.0588 25.1324C26.0591 25.1321 26.0593 25.1318 26.0596 25.1315C28.6006 22.3592 30 18.7612 30 15.0001ZM15.0001 8.05204C17.1512 8.05204 18.9014 9.80211 18.9014 11.9534C18.9014 14.1046 17.1513 15.8547 15.0001 15.8547C12.8488 15.8547 11.0987 14.1046 11.0987 11.9534C11.0987 9.80211 12.8488 8.05204 15.0001 8.05204Z" fill="#0083E1"/>
</svg>
