<svg width="32" height="20" viewBox="0 0 32 20" fill="none" xmlns="http://www.w3.org/2000/svg">
<path d="M32 0H0V20H32V0Z" fill="white"/>
<path d="M31.4668 16.7502H0.533218V19.4788H31.4668V16.7502Z" fill="#FCB315"/>
<path d="M31.4668 0.524628H0.533218V3.25329H31.4668V0.524628Z" fill="#0D357F"/>
<path d="M15.7326 6.25944L14.1021 13.7596H12.1299L13.7606 6.25944H15.7326ZM24.0295 11.1024L25.0677 8.28582L25.6649 11.1024H24.0295ZM26.231 13.7596H28.0544L26.4612 6.25944H24.7791C24.3998 6.25944 24.0804 6.47575 23.939 6.80925L20.9797 13.7596H23.051L23.4621 12.6394H25.9918L26.231 13.7596ZM21.0825 11.311C21.0911 9.33166 18.3015 9.2219 18.32 8.33757C18.3261 8.06878 18.5865 7.7825 19.1563 7.70933C19.4387 7.67347 20.2179 7.64461 21.1013 8.04502L21.4468 6.45388C20.9721 6.28509 20.3616 6.12242 19.6021 6.12242C17.6524 6.12242 16.2809 7.1413 16.2699 8.60154C16.2575 9.68135 17.2498 10.2833 17.9957 10.6429C18.7647 11.0105 19.0225 11.2464 19.0188 11.5748C19.0135 12.078 18.4053 12.3007 17.8394 12.3091C16.8473 12.3243 16.2723 12.0453 15.8139 11.8351L15.456 13.4793C15.9175 13.6872 16.768 13.8681 17.6484 13.8774C19.721 13.8774 21.0764 12.8703 21.0825 11.311ZM12.9147 6.25944L9.71925 13.7596H7.63481L6.06222 7.7739C5.96696 7.40586 5.88385 7.27059 5.59392 7.11506C5.1197 6.86158 4.33673 6.62457 3.64844 6.47706L3.69496 6.25944H7.05081C7.47822 6.25944 7.86281 6.5393 7.96059 7.02367L8.79125 11.364L10.8428 6.25944H12.9147Z" fill="#0D357F"/>
</svg>
