<svg width="30" height="20" viewBox="0 0 30 20" fill="none" xmlns="http://www.w3.org/2000/svg">
<path d="M6.9418 0C5.19465 0 3.57289 1.29912 3.1695 3.02163C3.1695 3.02207 0.0910212 16.1846 0.0910212 16.1846C-0.136707 17.1544 0.0676213 18.1313 0.650826 18.8654C1.22474 19.5861 2.11102 20 3.08127 20H23.0571C24.8035 20 26.4256 18.7014 26.8309 16.9799C26.8309 16.9779 29.9089 3.81542 29.9089 3.81542C30.1368 2.84574 29.9323 1.8669 29.3486 1.13413C28.7742 0.413473 27.889 0 26.9186 0H6.9418Z" fill="white"/>
<path d="M7.22152 2.13377H13.6036C14.4948 2.13377 15.0488 2.84716 14.8405 3.72631L11.8695 16.2747C11.6602 17.1537 10.7683 17.8667 9.87746 17.8667H3.49535C2.60347 17.8667 2.04982 17.1537 2.25897 16.2747L5.23052 3.72631C5.43877 2.84716 6.32964 2.13377 7.22152 2.13377Z" fill="#ED1C24"/>
<path d="M13.0738 2.13377H19.4555C20.3472 2.13377 20.9011 2.84716 20.6918 3.72631L17.7203 16.2747C17.511 17.1537 16.6202 17.8667 15.7274 17.8667H9.34673C8.45395 17.8667 7.90109 17.1537 8.11023 16.2747L11.081 3.72631C11.2901 2.84716 12.182 2.13377 13.0738 2.13377Z" fill="#00569E"/>
<path d="M20.1239 2.13377H26.505C27.3968 2.13377 27.9506 2.84716 27.7415 3.72631L24.7709 16.2747C24.5617 17.1537 23.6699 17.8667 22.7779 17.8667H16.3959C15.504 17.8667 14.9503 17.1537 15.1595 16.2747L18.1301 3.72631C18.3392 2.84716 19.2311 2.13377 20.1239 2.13377Z" fill="#00898E"/>
<path fill-rule="evenodd" clip-rule="evenodd" d="M21.0729 11.3974L20.4706 13.9285H20.6788L20.5529 14.4539H20.3445L20.3062 14.6143H19.5666L19.6049 14.4539H18.1014L18.219 13.9694L18.3722 13.9671L18.9838 11.3974L19.1053 10.8779H19.8607L19.801 11.1412C19.801 11.1412 19.9915 10.9974 20.1782 10.9492C20.366 10.9009 21.4595 10.8821 21.4595 10.8821L21.3326 11.3974H21.0729ZM19.7422 11.3974L19.588 12.0451C19.588 12.0451 19.8047 11.945 19.9252 11.9128C20.0466 11.8811 20.2315 11.8688 20.2315 11.8688L20.3427 11.3974H19.7422ZM19.5106 12.3676L19.3508 13.0388C19.3508 13.0388 19.5712 12.9235 19.6928 12.8912C19.8132 12.8592 19.9989 12.8389 19.9989 12.8389L20.113 12.3676H19.5106ZM19.138 13.9362H19.7394L19.8748 13.3661H19.2734L19.138 13.9362Z" fill="white"/>
<path fill-rule="evenodd" clip-rule="evenodd" d="M21.5014 10.8833H22.3064L22.3159 11.1781C22.3112 11.2259 22.3541 11.2499 22.4484 11.2515H22.5838L22.4624 11.7395H22.0273C21.65 11.7661 21.507 11.6062 21.5165 11.4275L21.5014 10.8833Z" fill="white"/>
<path fill-rule="evenodd" clip-rule="evenodd" d="M21.6382 13.1969H20.8696L20.9724 12.7624H21.8493L21.9474 12.3647H21.0808L21.1975 11.8763H23.6088L23.4911 12.3647H22.6814L22.5834 12.7624H23.394L23.2903 13.1969H22.4144L22.2696 13.3803H22.6254L22.7515 13.9277C22.7615 13.9816 22.7673 14.017 22.786 14.0394C22.8047 14.0588 22.9129 14.0685 22.9746 14.0685H23.0821L22.9551 14.6025H22.6814C22.6394 14.6025 22.5759 14.6008 22.49 14.5933C22.4067 14.587 22.3444 14.5401 22.2873 14.5143C22.235 14.4905 22.1556 14.4294 22.1304 14.3279L22.0081 13.7822L21.6476 14.3214C21.5309 14.4887 21.3684 14.6183 21.0798 14.6183H20.5195L20.6325 14.145H20.8474C20.9089 14.145 20.963 14.1203 21.0013 14.1006C21.0406 14.0826 21.0752 14.062 21.1135 14.0045L21.6382 13.1969Z" fill="white"/>
<path fill-rule="evenodd" clip-rule="evenodd" d="M13.1465 12.0079H15.1792L15.0625 12.4857H14.2462L14.1468 12.8927H14.9765L14.8561 13.3869H14.0262L13.8652 14.046C13.8465 14.1201 14.0683 14.1301 14.1487 14.1301L14.5608 14.0759L14.4284 14.6189H13.4903C13.4155 14.6189 13.3581 14.6105 13.2755 14.5904C13.1951 14.5716 13.1583 14.5362 13.1196 14.4829C13.0826 14.4315 13.0275 14.3864 13.0555 14.2717L13.2695 13.3952H12.8071L12.9299 12.8927H13.3932L13.4916 12.4857H13.0303L13.1465 12.0079Z" fill="white"/>
<path fill-rule="evenodd" clip-rule="evenodd" d="M14.4614 11.1507H15.2963L15.1748 11.6482H14.035L13.9173 11.7553C13.8692 11.8048 13.8483 11.7841 13.7824 11.8196C13.719 11.8527 13.5877 11.9151 13.4121 11.9151H13.0471L13.1642 11.4354H13.2736C13.3668 11.4354 13.43 11.4273 13.4612 11.4067C13.4948 11.386 13.5326 11.334 13.5737 11.2517L13.7595 10.877H14.5902L14.4614 11.1507Z" fill="white"/>
<path fill-rule="evenodd" clip-rule="evenodd" d="M15.637 10.8806H16.3487L16.2665 11.2333C16.2665 11.2333 16.4803 11.0565 16.6344 10.9972C16.7875 10.9374 17.1386 10.887 17.1386 10.887L18.2873 10.8797L17.9772 12.1639C17.9241 12.3836 17.8568 12.5259 17.8139 12.5915C17.7728 12.6559 17.7271 12.7134 17.6298 12.7675C17.5347 12.8171 17.4487 12.8456 17.3684 12.8538C17.2909 12.8603 17.1751 12.8626 17.0144 12.8644H15.9069L15.6594 13.881C15.6342 13.9815 15.6238 14.0288 15.6444 14.0554C15.6632 14.0802 15.7024 14.108 15.7546 14.108L16.2394 14.0619L16.1077 14.619H15.5596C15.3868 14.619 15.2588 14.6168 15.171 14.6086C15.0861 14.6021 14.9983 14.6086 14.9376 14.5625C14.8824 14.5195 14.8021 14.4625 14.8002 14.4028C14.8021 14.3472 14.8189 14.2559 14.8469 14.1308L15.637 10.8806ZM17.2283 12.1796H16.0637L16.0067 12.4101H17.0154C17.1341 12.3981 17.1591 12.4128 17.1685 12.4087L17.2283 12.1796ZM16.1141 11.971C16.1141 11.971 16.3279 11.7661 16.7148 11.6991C16.8025 11.6834 17.3582 11.688 17.3582 11.688L17.4244 11.4134H16.2496L16.1141 11.971Z" fill="white"/>
<path fill-rule="evenodd" clip-rule="evenodd" d="M17.8401 12.9549L17.7953 13.2641C17.7709 13.3591 17.7532 13.4322 17.6833 13.4955C17.6095 13.5607 17.5217 13.6279 17.3088 13.6279L16.9166 13.643L16.9334 13.9911C16.9363 14.0923 16.9615 14.0818 16.9783 14.0976C16.9968 14.1146 17.0145 14.1222 17.0324 14.1267L17.1575 14.1222L17.5311 14.0996L17.4086 14.6108H16.9772C16.6728 14.6108 16.4487 14.6017 16.3712 14.5475C16.2955 14.4983 16.2815 14.4418 16.2778 14.3468L16.2199 12.9857H16.9101L16.9184 13.2641H17.0837C17.1416 13.2641 17.179 13.2585 17.2024 13.2438C17.222 13.2291 17.235 13.2062 17.2444 13.1714L17.2967 12.9549H17.8401Z" fill="white"/>
<path d="M7.97669 6.13967C7.9525 6.25212 7.50891 8.26133 7.50791 8.26221C7.41263 8.66742 7.34355 8.95963 7.10921 9.14698C6.97284 9.25448 6.81879 9.30724 6.63763 9.30724C6.34709 9.30724 6.17714 9.16449 6.14736 8.89475L6.14165 8.80334C6.14165 8.80334 6.23043 8.25857 6.23133 8.25582C6.23133 8.25582 6.69731 6.42394 6.77949 6.18053C6.78229 6.16764 6.78419 6.16037 6.78699 6.152C5.88201 6.16313 5.72056 6.15475 5.70937 6.13911C5.70466 6.1585 5.68037 6.27239 5.68037 6.27239L5.20599 8.3381L5.1649 8.513L5.08731 9.08453C5.08731 9.25492 5.12101 9.39403 5.1892 9.5099C5.40483 9.88284 6.02218 9.9389 6.37049 9.9389C6.81968 9.9389 7.24088 9.84241 7.5266 9.6739C8.01968 9.38489 8.15045 8.93385 8.26622 8.53602L8.31951 8.33116C8.31951 8.33116 8.79848 6.42758 8.88077 6.18009C8.88357 6.16676 8.88536 6.16037 8.88726 6.152C8.23263 6.16169 8.03838 6.15387 7.97669 6.13967Z" fill="white"/>
<path d="M10.6257 9.9178C10.3035 9.91416 10.1924 9.91416 9.81699 9.93068L9.80199 9.9059C9.83468 9.76338 9.87107 9.6257 9.90376 9.48329L9.94855 9.29263C10.0186 8.99172 10.0868 8.64676 10.0943 8.54069C10.1017 8.47637 10.1223 8.31743 9.93836 8.31743C9.85987 8.31743 9.77769 8.35422 9.69552 8.3909C9.65073 8.54895 9.55915 8.99635 9.51627 9.19934C9.42379 9.62977 9.41718 9.67846 9.3762 9.88938L9.349 9.9178C9.01849 9.91416 8.9035 9.91416 8.52351 9.93068L8.50571 9.90227C8.5693 9.64585 8.63278 9.39 8.69257 9.13414C8.85312 8.44377 8.89052 8.17965 8.93441 7.8305L8.9643 7.80583C9.33601 7.75703 9.42468 7.74514 9.82808 7.66374L9.86088 7.70009L9.80009 7.92335C9.86737 7.88292 9.93366 7.8425 10.0037 7.80583C10.1924 7.71661 10.4033 7.68808 10.5182 7.68808C10.6939 7.68808 10.8871 7.73688 10.9674 7.93612C11.045 8.11433 10.9936 8.33396 10.8927 8.76846L10.8414 8.98809C10.7378 9.47128 10.7209 9.5605 10.6649 9.88938L10.6257 9.9178Z" fill="white"/>
<path d="M11.93 9.91806C11.7358 9.9163 11.6115 9.91531 11.4901 9.91674C11.3697 9.91806 11.252 9.92258 11.0717 9.93095L11.0614 9.9163L11.0502 9.90253C11.0988 9.71871 11.1249 9.65438 11.1502 9.59006C11.1744 9.5253 11.1978 9.46009 11.2408 9.27495C11.2968 9.03473 11.3314 8.8639 11.3566 8.7173C11.3819 8.5718 11.3977 8.45042 11.4155 8.31043L11.4304 8.29843L11.4463 8.28554C11.6386 8.25944 11.761 8.24193 11.8851 8.2221C12.0103 8.20238 12.1373 8.17991 12.3381 8.14313L12.3511 8.17617C12.3137 8.3264 12.2764 8.47752 12.2401 8.62786C12.2036 8.77799 12.1682 8.9291 12.1326 9.07933C12.0598 9.3972 12.0318 9.51748 12.015 9.59931C11.9981 9.68104 11.9934 9.72521 11.9655 9.88965L11.9477 9.90419L11.93 9.91806Z" fill="white"/>
<path d="M14.8137 8.83072C14.9266 8.34422 14.8407 8.11733 14.7296 7.9791C14.5614 7.76862 14.2678 7.69978 13.9605 7.69978C13.7766 7.69978 13.3387 7.71994 12.9959 8.03241C12.7512 8.25468 12.6355 8.55867 12.5673 8.85088C12.4982 9.14716 12.4178 9.68641 12.9165 9.8807C13.0733 9.94602 13.2938 9.96628 13.4366 9.96628C13.8045 9.96628 14.1801 9.86517 14.4615 9.56889C14.6801 9.33374 14.7792 8.97677 14.8137 8.83072ZM13.9755 8.79437C13.9568 8.87566 13.8849 9.1835 13.7851 9.31303C13.7187 9.40665 13.6356 9.4636 13.5459 9.4636C13.5207 9.4636 13.362 9.46359 13.3582 9.23219C13.3564 9.11863 13.3798 9.00111 13.4096 8.87147C13.4945 8.50635 13.5945 8.19862 13.8485 8.19862C14.0493 8.19862 14.0614 8.42551 13.9755 8.79437Z" fill="white"/>
<path d="M21.889 9.3516C21.8228 9.44389 21.6668 9.50084 21.577 9.50084C21.5519 9.50084 21.3932 9.50084 21.3894 9.27119C21.3876 9.15819 21.4108 9.04144 21.4407 8.9129C21.5256 8.55086 21.6256 8.245 21.8796 8.245C22.045 8.245 22.1253 8.40449 22.103 8.66398C22.0898 8.72225 22.0786 8.775 22.0627 8.84395C22.0356 8.95707 22.0039 9.0682 21.9759 9.18066C21.9497 9.24685 21.9216 9.3093 21.889 9.3516ZM23.1591 7.72502C22.7575 7.79705 22.652 7.81325 22.2671 7.86567L22.2373 7.88946C22.2326 7.92162 22.2289 7.95103 22.2244 7.98187C22.1645 7.88528 22.0804 7.8008 21.945 7.7498C21.7732 7.6846 21.3699 7.77007 21.027 8.07968C20.7824 8.30106 20.6665 8.60285 20.5985 8.89264C20.5294 9.18671 20.449 9.72222 20.9477 9.91519C21.1045 9.97962 21.2494 9.99879 21.3923 9.99141C21.5453 9.9837 21.6855 9.90462 21.8172 9.79624C21.8048 9.84217 21.7938 9.88854 21.7815 9.93447L21.8041 9.9631C22.1636 9.94647 22.2737 9.94647 22.6613 9.95099L22.6968 9.92246C22.7528 9.59633 22.8071 9.27857 22.9547 8.65065C23.0246 8.3525 23.0983 8.05479 23.1721 7.75718L23.1591 7.72502Z" fill="white"/>
<path d="M17.0053 9.9178C16.6831 9.91416 16.5729 9.91416 16.1966 9.93068L16.1816 9.9059C16.2152 9.76338 16.2507 9.6257 16.2844 9.48329L16.3283 9.29263C16.3982 8.99172 16.4665 8.64676 16.4748 8.54069C16.4813 8.47637 16.5019 8.31743 16.3178 8.31743C16.2404 8.31743 16.1583 8.35422 16.076 8.3909C16.0313 8.54895 15.9397 8.99635 15.8959 9.19934C15.8044 9.62977 15.7968 9.67846 15.7558 9.88938L15.7287 9.9178C15.3989 9.91416 15.2841 9.91416 14.904 9.93068L14.8863 9.90227C14.9498 9.64585 15.0133 9.39 15.0731 9.13414C15.2337 8.44377 15.2701 8.17965 15.3149 7.8305L15.3448 7.80583C15.7156 7.75703 15.8052 7.74514 16.2078 7.66374L16.2404 7.70009L16.1807 7.92335C16.247 7.88292 16.3141 7.8425 16.3832 7.80583C16.5719 7.71661 16.783 7.68808 16.8978 7.68808C17.0735 7.68808 17.2668 7.73688 17.348 7.93612C17.4245 8.11433 17.3731 8.33396 17.2723 8.76846L17.2219 8.98809C17.1172 9.47128 17.1006 9.5605 17.0445 9.88938L17.0053 9.9178Z" fill="white"/>
<path d="M20.1342 7.31702C20.0764 7.56771 19.913 7.77907 19.6991 7.88293C19.5216 7.96972 19.3077 7.9771 19.0856 7.9771H18.9408L18.9538 7.91972C18.9538 7.91972 19.2172 6.78878 19.2162 6.79242L19.2237 6.73503L19.2293 6.68955L19.334 6.69968C19.334 6.69968 19.8784 6.74737 19.8924 6.75012C20.1071 6.83097 20.1978 7.04222 20.1342 7.31702ZM19.7869 6.13553C19.786 6.13553 19.5197 6.14104 19.5197 6.14104C18.8259 6.14787 18.5476 6.14611 18.4327 6.1319C18.4224 6.18058 18.4037 6.27012 18.4037 6.27057C18.4037 6.27057 18.1562 7.40426 18.1562 7.40514C18.1562 7.40514 17.5614 9.81592 17.5334 9.92893C18.1385 9.92056 18.3879 9.92012 18.4916 9.93157C18.5158 9.81768 18.6569 9.14615 18.6579 9.14472C18.6579 9.14472 18.7782 8.64996 18.7857 8.63443C18.7857 8.63443 18.8222 8.582 18.8614 8.56185H18.9156C19.4377 8.56185 20.0287 8.56185 20.491 8.22647C20.8048 7.99869 21.0205 7.66056 21.1166 7.24896C21.1409 7.14707 21.1597 7.02669 21.1597 6.90542C21.1597 6.75012 21.1278 6.59251 21.0344 6.46816C20.7982 6.14522 20.3303 6.14104 19.7869 6.13553Z" fill="white"/>
<path d="M12.2823 7.98002C12.4944 7.83618 12.5214 7.63451 12.3411 7.52987C12.161 7.42601 11.8434 7.45861 11.6305 7.60246C11.4166 7.74762 11.3914 7.94918 11.5707 8.05349C11.751 8.15779 12.0694 8.12508 12.2823 7.98002Z" fill="white"/>
<path fill-rule="evenodd" clip-rule="evenodd" d="M25.8323 7.72127L25.8007 7.68536C25.4056 7.76577 25.3337 7.77821 24.9704 7.82601L24.9414 7.85025C24.9405 7.8563 24.9396 7.86225 24.9387 7.8682L24.9368 7.86357C24.6641 8.48004 24.6734 8.34688 24.4532 8.83007C24.4523 8.80804 24.4512 8.79152 24.4503 8.77081L24.3952 7.72127L24.3615 7.68536C23.946 7.76577 23.9358 7.77821 23.5529 7.82601L23.522 7.85025C23.5202 7.86456 23.5183 7.87833 23.5164 7.89309L23.5202 7.89673C23.5669 8.13926 23.5566 8.08595 23.6043 8.46539C23.6257 8.65098 23.6557 8.83976 23.6771 9.02491C23.7162 9.33077 23.7367 9.48596 23.7825 9.95285C23.5239 10.3754 23.4623 10.5343 23.2157 10.9045V10.9054L23.0392 11.1801C23.0196 11.2095 23.0009 11.2277 22.9766 11.237C22.9486 11.2489 22.9104 11.2536 22.8599 11.2536H22.7254L22.6134 11.7477L23.114 11.7405C23.4043 11.7381 23.5883 11.5972 23.6883 11.419L23.9946 10.8931L25.8323 7.72127Z" fill="white"/>
</svg>
